<?xml version="1.0"?>
<svg xmlns="http://www.w3.org/2000/svg" viewBox="0 0 290 71.8">
 <path d="M81.8,25.6c0.4,0.9,0.6,2,0.6,3.1c0,1.2-0.2,2.2-0.6,3.2c-0.4,0.9-1,1.7-1.7,2.4c-0.7,0.6-1.6,1.1-2.7,1.5
  c-1.1,0.3-2.3,0.5-3.6,0.5h-2.3v6.9h-5.5V21.3h7.9c1.3,0,2.5,0.2,3.6,0.5c1.1,0.3,2,0.8,2.7,1.5C80.8,23.9,81.4,24.7,81.8,25.6z
   M76.8,28.7c0-2.1-1.3-3.1-3.8-3.1h-1.5v6.2H73C75.5,31.8,76.8,30.8,76.8,28.7z M238,32.4l1.3-4.2h-4.8v-3.8h-5.2v3.8h-2.5v4.2h2.5
  v5.3c0,3.9,1.9,5.8,5.6,5.8c0.9,0,1.7-0.1,2.4-0.2c0.7-0.1,1.4-0.3,1.9-0.5l-0.5-4c-0.3,0.1-0.7,0.2-1.1,0.3
  c-0.4,0.1-0.8,0.1-1.3,0.1c-0.7,0-1.2-0.2-1.5-0.5c-0.3-0.4-0.4-1-0.4-1.9v-4.4H238z M221.8,20.4c-0.8,0-1.5,0.3-2.1,0.8
  c-0.6,0.5-0.8,1.2-0.8,2c0,0.8,0.3,1.4,0.8,2c0.6,0.5,1.2,0.8,2.1,0.8c0.8,0,1.5-0.3,2.1-0.8c0.6-0.5,0.8-1.2,0.8-2s-0.3-1.5-0.8-2
  C223.3,20.7,222.6,20.4,221.8,20.4z M250.5,27.8c-1,0-1.8,0.2-2.6,0.6c-0.7,0.4-1.3,1-1.7,1.7l-0.1-1.8h-5.1v14.8h5.2v-7.9
  c0-0.9,0.2-1.6,0.6-2.1c0.4-0.5,0.9-0.7,1.7-0.7c1.3,0,2,0.9,2,2.6v8.1h5.2v-9c0-2.1-0.4-3.6-1.3-4.7
  C253.5,28.3,252.3,27.8,250.5,27.8z M272.8,37h-10.4c0.5,1.7,2.6,2.5,5,2.5c0.6,0,1.2-0.1,1.9-0.2c0.7-0.1,1.4-0.3,2-0.6l1.6,3.3
  c-0.7,0.5-1.7,0.9-2.7,1.2c-1.1,0.3-2.2,0.4-3.3,0.4c-1.4,0-2.6-0.2-3.7-0.5c-1.1-0.4-2-0.9-2.8-1.6c-0.8-0.7-1.4-1.5-1.8-2.5
  c-0.4-1-0.6-2.1-0.6-3.3c0-1.2,0.2-2.2,0.6-3.2c0.4-1,0.9-1.8,1.6-2.5c0.7-0.7,1.5-1.2,2.5-1.6c1-0.4,2-0.6,3.2-0.6
  c1.1,0,2.1,0.2,3,0.5c0.9,0.3,1.7,0.8,2.3,1.5c0.6,0.6,1.1,1.4,1.5,2.3c0.3,0.9,0.5,1.9,0.5,3.1C272.9,36,272.9,36.5,272.8,37z
   M268.7,34.3c-0.1-1-0.4-1.7-1-2.2c-0.5-0.5-1.2-0.8-2.1-0.8c-1.8,0-2.9,1-3.3,3H268.7z M219.2,43.1h5.2V28.3h-5.2V43.1z
   M136.9,32.4l1.3-4.2h-4.8v-3.8h-5.2v3.8h-1.6H126h-4.2v-3.8h-5.2v3.8h-2.5v4.2h2.5v5.3c0,3.9,1.9,5.8,5.6,5.8
  c0.9,0,1.7-0.1,2.4-0.2c0.7-0.1,1.4-0.3,1.9-0.5l-0.5-4c-0.3,0.1-0.7,0.2-1.1,0.3c-0.4,0.1-0.8,0.1-1.3,0.1c-0.7,0-1.2-0.2-1.5-0.5
  c-0.3-0.4-0.4-1-0.4-1.9v-4.4h4.2h0.7h1.6v5.3c0,3.9,1.9,5.8,5.6,5.8c0.9,0,1.7-0.1,2.4-0.2c0.7-0.1,1.4-0.3,1.9-0.5l-0.5-4
  c-0.3,0.1-0.7,0.2-1,0.3c-0.4,0.1-0.8,0.1-1.3,0.1c-0.7,0-1.2-0.2-1.5-0.5c-0.3-0.4-0.4-1-0.4-1.9v-4.4H136.9z M210.9,27.8
  c-0.9,0-1.7,0.2-2.5,0.5s-1.3,0.9-1.7,1.5v-8.6h-5.2v21.9h5.2v-7.9c0-0.9,0.2-1.6,0.6-2.1c0.4-0.5,0.9-0.7,1.7-0.7
  c1.3,0,2,0.9,2,2.6v8.1h5.2v-9c0-2.1-0.4-3.6-1.3-4.7C213.9,28.3,212.6,27.8,210.9,27.8z M107.2,28.3h4.9v14.8h-4.9l-0.1-1.7
  c-0.4,0.7-1,1.2-1.8,1.6c-0.8,0.4-1.6,0.6-2.6,0.6c-1,0-1.9-0.2-2.7-0.6c-0.8-0.4-1.5-0.9-2.1-1.6c-0.6-0.7-1.1-1.5-1.4-2.5
  c-0.3-1-0.5-2-0.5-3.2c0-1.1,0.2-2.2,0.5-3.2c0.3-1,0.8-1.8,1.5-2.5c0.6-0.7,1.4-1.3,2.2-1.7c0.8-0.4,1.8-0.6,2.7-0.6
  c0.9,0,1.7,0.2,2.5,0.6c0.7,0.4,1.3,0.9,1.8,1.6L107.2,28.3z M107.2,35.7c0-1-0.3-1.8-0.8-2.4c-0.6-0.6-1.3-0.9-2.2-0.9
  c-0.9,0-1.6,0.3-2.2,0.9c-0.6,0.6-0.8,1.4-0.8,2.4c0,1,0.3,1.8,0.8,2.4c0.6,0.6,1.3,0.9,2.2,0.9c0.9,0,1.6-0.3,2.2-0.9
  C106.9,37.5,107.2,36.7,107.2,35.7z M91.1,28.6c-0.6,0.4-1.1,1-1.5,1.9l-0.1-2.2h-5v14.8h5.2v-6.4c0-2.6,1-3.9,3-3.9
  c0.3,0,0.6,0,1,0.1c0.3,0.1,0.7,0.2,0.9,0.3l0.4-4.9c-0.5-0.2-1-0.3-1.7-0.3C92.5,28,91.8,28.2,91.1,28.6z M190.3,35.4l-4.1-13.8
  h-4.8l-4.1,14.1L174,21.3h-6.1l6.4,21.9h5.2l4.1-14.1l4.2,14.1h5.2l6.5-21.9h-6.1L190.3,35.4z M161.2,39.4l3.3,3.7H159l-0.9-0.9
  c-1.6,0.9-3.5,1.4-5.7,1.4c-2.4,0-4.2-0.5-5.6-1.6c-1.4-1.1-2.1-2.6-2.1-4.4c0-2.5,1.4-4.4,4.1-5.8c-1.2-1.5-1.8-2.9-1.8-4.3
  c0-0.8,0.2-1.5,0.5-2.1c0.3-0.6,0.8-1.2,1.3-1.6c0.6-0.5,1.2-0.8,2-1.1c0.8-0.2,1.6-0.4,2.4-0.4c0.9,0,1.7,0.1,2.4,0.3
  c0.7,0.2,1.3,0.6,1.8,1c0.5,0.4,0.9,0.9,1.2,1.5c0.3,0.6,0.4,1.3,0.4,2c0,2.1-1.3,3.9-3.9,5.4l3.2,3.6c0.4-1,0.5-2.1,0.5-3.5h4.3
  C163.2,35.2,162.5,37.5,161.2,39.4z M151.6,27.5c0,0.3,0.1,0.7,0.3,1.1c0.2,0.4,0.5,0.8,1,1.4c0.6-0.4,1-0.7,1.3-1.1
  c0.3-0.4,0.4-0.8,0.4-1.3c0-0.5-0.1-0.9-0.4-1.2c-0.2-0.3-0.6-0.4-1.1-0.4c-0.5,0-0.8,0.1-1.1,0.4C151.8,26.7,151.6,27,151.6,27.5z
   M155.6,39.3l-4.3-4.9c-0.9,0.7-1.4,1.6-1.4,2.6c0,0.9,0.3,1.5,0.9,2s1.4,0.7,2.5,0.7C154.2,39.7,155,39.6,155.6,39.3z"/>
 <path d="M21.2,9.4c0.6-0.1,1.2-0.2,1.8-0.3l2.8,15.9c-0.6,0.1-1.2,0.2-1.8,0.3L21.2,9.4z"/>
 <path d="M20.5,27c0.6-0.4,1.2-0.8,1.9-1.1l-8-14c-0.6,0.3-1.3,0.7-1.9,1.1L20.5,27z"/>
 <path d="M15.9,35.9c0-0.6,0.1-1.2,0.1-1.8h-16C0,34.6,0,35.2,0,35.8c0,0.5,0,1.1,0,1.6h16C16,36.9,15.9,36.4,15.9,35.9"/>
 <path d="M37.6,35.9c0,6-4.9,10.8-10.8,10.8c-5.4,0-9.8-3.9-10.7-9L1,43.2c0.3,1.2,0.7,2.3,1.2,3.4l14.9-5.5L5,51.5
  c0.8,1.1,1.6,2.1,2.5,3.1L19,44.9l-7.4,13c1.2,0.8,2.4,1.6,3.7,2.2l7-12.2l-2.4,13.9c1.5,0.4,3,0.7,4.6,0.8l2.3-13l2.3,13
  c1.7-0.1,3.3-0.4,4.8-0.9l-2.1-12.1l6.1,10.6c1.7-0.8,3.2-1.7,4.7-2.8l-5.6-9.8l8.6,7.2c1.4-1.3,2.6-2.8,3.6-4.5l-7.6-6.5l9.4,3.4
  c0.9-1.8,1.5-3.7,2-5.7l-8.2-3l8.7,0c0.1-1,0.2-2,0.2-3.1c0-1.2-0.1-2.4-0.2-3.5H37C37.4,33.4,37.6,34.6,37.6,35.9"/>
 <path d="M16.2,33.4c0.2-1,0.6-1.9,1-2.7L2.2,25.2c-0.4,0.9-0.7,1.8-1,2.7L16.2,33.4z"/>
 <path d="M46.9,18.1L34.7,28.4c0.3,0.3,0.6,0.7,0.8,1l12.3-10.3C47.5,18.7,47.2,18.4,46.9,18.1"/>
 <path d="M40.8,12.9c-0.4-0.3-0.9-0.5-1.3-0.8l-8,14c0.5,0.2,0.9,0.5,1.3,0.8L40.8,12.9z"/>
 <path d="M19.4,27.9L7.1,17.5c-0.6,0.6-1.1,1.3-1.6,1.9l12.3,10.4C18.2,29.1,18.8,28.5,19.4,27.9"/>
 <path d="M27.8,25.1c0.5,0.1,1.1,0.1,1.6,0.3l2.8-15.9c-0.5-0.1-1.1-0.2-1.6-0.3L27.8,25.1z"/>
 <path d="M95.2,57.1c0.3-0.5,0.4-1,0.4-1.6c0-1.1-0.4-2-1.1-2.7c-0.7-0.6-1.8-1-3.1-1h-3.9v10.7h2.7V59h1.4l1.9,3.4h3.1l-2.6-4.2
  C94.5,58,94.9,57.6,95.2,57.1z M91.1,57h-0.8v-3.1h0.8c1.2,0,1.8,0.5,1.8,1.5C92.9,56.5,92.3,57,91.1,57z"/>
 <polygon points="95.9,54.1 99.2,54.1 99.2,62.5 102,62.5 102,54.1 105.3,54.1 105.3,51.8 95.9,51.8"/>
 <polygon points="115.9,51.8 112.7,51.8 110.8,55.1 108.9,51.8 105.6,51.8 109,56.9 105.3,62.5 108.6,62.5 110.6,58.8 112.7,62.5 
  116.1,62.5 112.4,57"/>
 <path d="M70.1,51.8l-4.3,10.7H67l1.3-3.2h4.9l1.3,3.2h1.4l-4.3-10.7H70.1z M68.7,58.2l2-5.1l2,5.1H68.7z"/>
 <path d="M80.8,55.2c-0.5,0-1,0.1-1.4,0.4c-0.4,0.3-0.7,0.6-0.9,1.1l0-1.2h-1.1v7h1.2v-3.9c0-0.7,0.2-1.3,0.5-1.7
  c0.4-0.4,0.8-0.6,1.5-0.6c0.6,0,1,0.2,1.3,0.5c0.3,0.4,0.4,0.9,0.4,1.6v4h1.2v-4.2c0-1-0.2-1.7-0.7-2.2
  C82.3,55.5,81.7,55.2,80.8,55.2z"/>
 <path d="M125.1,56.8c0.5-0.2,0.9-0.5,1.2-0.9c0.3-0.4,0.4-0.9,0.4-1.4c0-0.8-0.3-1.5-0.8-2c-0.6-0.5-1.3-0.7-2.3-0.7h-3.7v10.7
  h3.9c1.1,0,2-0.3,2.6-0.8c0.6-0.5,1-1.3,1-2.2c0-0.7-0.2-1.2-0.6-1.7C126.3,57.2,125.8,56.9,125.1,56.8z M121.1,52.8h2.4
  c0.7,0,1.2,0.1,1.6,0.4c0.4,0.3,0.5,0.7,0.5,1.2c0,0.6-0.2,1.1-0.5,1.4c-0.4,0.3-0.9,0.5-1.6,0.5h-2.3V52.8z M125.5,60.9
  c-0.4,0.4-1,0.5-1.7,0.5h-2.7v-4h2.5c0.8,0,1.4,0.2,1.8,0.5c0.4,0.3,0.6,0.8,0.6,1.5C126.1,60.1,125.9,60.6,125.5,60.9z"/>
 <path d="M133.9,59.3c0,0.7-0.2,1.3-0.5,1.7c-0.4,0.4-0.8,0.6-1.4,0.6c-0.6,0-1-0.2-1.3-0.5c-0.3-0.3-0.4-0.9-0.4-1.6v-4.1h-1.2
  v4.4c0,0.9,0.2,1.6,0.6,2.1c0.4,0.5,1,0.7,1.8,0.7c0.6,0,1.1-0.1,1.5-0.4c0.4-0.2,0.7-0.6,0.9-1l0,1.2h1.1v-7h-1.2V59.3z"/>
 <path d="M139.4,58.4c-0.6-0.2-1-0.3-1.2-0.5c-0.2-0.2-0.3-0.4-0.3-0.7c0-0.3,0.1-0.5,0.4-0.7c0.3-0.2,0.6-0.2,1.1-0.2
  c0.7,0,1.4,0.2,1.9,0.6l0.2-1c-0.3-0.2-0.6-0.3-1-0.4c-0.4-0.1-0.8-0.2-1.1-0.2c-0.8,0-1.5,0.2-1.9,0.6c-0.5,0.4-0.7,0.9-0.7,1.5
  c0,0.5,0.2,0.9,0.5,1.3c0.3,0.3,0.9,0.6,1.7,0.8c0.5,0.1,0.8,0.3,1,0.4c0.2,0.1,0.4,0.2,0.5,0.4c0.1,0.1,0.1,0.3,0.1,0.5
  c0,0.3-0.1,0.6-0.4,0.7c-0.3,0.2-0.7,0.3-1.2,0.3c-0.4,0-0.7-0.1-1.1-0.2c-0.4-0.1-0.7-0.3-1-0.5l-0.2,1.1c0.3,0.2,0.6,0.4,1,0.5
  s0.9,0.2,1.3,0.2c0.9,0,1.6-0.2,2.1-0.6c0.5-0.4,0.8-0.9,0.8-1.5c0-0.6-0.2-1-0.5-1.4C140.9,58.9,140.2,58.6,139.4,58.4z"/>
 <path d="M143.9,51.9c-0.2,0-0.4,0.1-0.6,0.2c-0.2,0.2-0.2,0.4-0.2,0.6c0,0.2,0.1,0.4,0.2,0.6s0.3,0.2,0.6,0.2
  c0.2,0,0.4-0.1,0.6-0.2s0.2-0.4,0.2-0.6c0-0.2-0.1-0.4-0.2-0.6C144.3,52,144.1,51.9,143.9,51.9z"/>
 <rect x="143.3" y="55.5" width="1.2" height="7"/>
 <path d="M150.1,55.2c-0.5,0-1,0.1-1.4,0.4c-0.4,0.3-0.7,0.6-0.9,1.1l0-1.2h-1.1v7h1.2v-3.9c0-0.7,0.2-1.3,0.5-1.7
  c0.4-0.4,0.8-0.6,1.5-0.6c0.6,0,1,0.2,1.3,0.5c0.3,0.4,0.4,0.9,0.4,1.6v4h1.2v-4.2c0-1-0.2-1.7-0.7-2.2
  C151.6,55.5,150.9,55.2,150.1,55.2z"/>
 <path d="M157.8,55.2c-0.7,0-1.3,0.2-1.8,0.5c-0.5,0.3-0.9,0.8-1.2,1.4c-0.3,0.6-0.4,1.2-0.4,1.9c0,1.1,0.3,2,1,2.7
  c0.7,0.7,1.6,1,2.8,1c0.5,0,1-0.1,1.4-0.2c0.5-0.1,0.9-0.3,1.2-0.5l-0.1-1c-0.8,0.4-1.6,0.6-2.4,0.6c-0.8,0-1.4-0.2-1.9-0.6
  c-0.5-0.4-0.8-1-0.8-1.7h5.4c0-0.1,0-0.2,0-0.3c0-0.1,0-0.2,0-0.3c0-1-0.3-1.9-0.9-2.5C159.5,55.6,158.7,55.2,157.8,55.2z
   M155.5,58.4c0.1-0.7,0.3-1.2,0.7-1.6c0.4-0.4,0.9-0.6,1.5-0.6c0.6,0,1.1,0.2,1.5,0.6c0.4,0.4,0.6,0.9,0.6,1.6H155.5z"/>
 <path d="M165,58.4c-0.6-0.2-1-0.3-1.2-0.5c-0.2-0.2-0.3-0.4-0.3-0.7c0-0.3,0.1-0.5,0.4-0.7c0.3-0.2,0.6-0.2,1.1-0.2
  c0.7,0,1.4,0.2,1.9,0.6l0.2-1c-0.3-0.2-0.6-0.3-1-0.4c-0.4-0.1-0.8-0.2-1.1-0.2c-0.8,0-1.5,0.2-1.9,0.6c-0.5,0.4-0.7,0.9-0.7,1.5
  c0,0.5,0.2,0.9,0.5,1.3c0.3,0.3,0.9,0.6,1.7,0.8c0.5,0.1,0.8,0.3,1,0.4c0.2,0.1,0.4,0.2,0.5,0.4c0.1,0.1,0.1,0.3,0.1,0.5
  c0,0.3-0.1,0.6-0.4,0.7c-0.3,0.2-0.7,0.3-1.2,0.3c-0.4,0-0.7-0.1-1.1-0.2c-0.4-0.1-0.7-0.3-1-0.5l-0.2,1.1c0.3,0.2,0.6,0.4,1,0.5
  c0.4,0.1,0.9,0.2,1.3,0.2c0.9,0,1.6-0.2,2.1-0.6c0.5-0.4,0.8-0.9,0.8-1.5c0-0.6-0.2-1-0.5-1.4C166.6,58.9,165.9,58.6,165,58.4z"/>
 <path d="M173.1,59.2c-0.4-0.3-1-0.6-1.9-0.9c-0.6-0.2-1-0.3-1.2-0.5c-0.2-0.2-0.3-0.4-0.3-0.7c0-0.3,0.1-0.5,0.4-0.7
  c0.3-0.2,0.6-0.2,1.1-0.2c0.7,0,1.4,0.2,1.9,0.6l0.2-1c-0.3-0.2-0.6-0.3-1-0.4c-0.4-0.1-0.8-0.2-1.1-0.2c-0.8,0-1.5,0.2-1.9,0.6
  c-0.5,0.4-0.7,0.9-0.7,1.5c0,0.5,0.2,0.9,0.5,1.3s0.9,0.6,1.7,0.8c0.5,0.1,0.8,0.3,1,0.4c0.2,0.1,0.4,0.2,0.5,0.4
  c0.1,0.1,0.1,0.3,0.1,0.5c0,0.3-0.1,0.6-0.4,0.7c-0.3,0.2-0.7,0.3-1.2,0.3c-0.4,0-0.7-0.1-1.1-0.2c-0.4-0.1-0.7-0.3-1-0.5
  l-0.2,1.1c0.3,0.2,0.6,0.4,1,0.5c0.4,0.1,0.9,0.2,1.3,0.2c0.9,0,1.6-0.2,2.1-0.6c0.5-0.4,0.8-0.9,0.8-1.5
  C173.7,60,173.5,59.6,173.1,59.2z"/>
 <polygon points="290,28.1 284.4,28.1 281.6,36 278.6,28.1 272.9,28.1 279,42.1 276.3,47.9 281.4,47.9"/>
</svg>
